<svg width="95" height="95" viewBox="0 0 95 95" fill="none" xmlns="http://www.w3.org/2000/svg">
<g clip-path="url(#clip0_2112_16634)">
<path d="M47.5 95C73.7335 95 95 73.7335 95 47.5C95 21.2665 73.7335 0 47.5 0C21.2665 0 0 21.2665 0 47.5C0 73.7335 21.2665 95 47.5 95Z" fill="#225157"/>
<path d="M25.83 18.09C24.6 18.09 23.6 19.09 23.6 20.32V64.94C23.6 66.17 24.6 67.17 25.83 67.17H39.21C40.44 67.17 41.44 68.17 41.44 69.4C41.44 70.63 40.44 71.63 39.21 71.63H25.83C24.6 71.63 23.6 72.63 23.6 73.86C23.6 75.09 24.6 76.09 25.83 76.09H43.68C44.91 76.09 45.91 75.09 45.91 73.86V64.94C45.91 63.71 44.91 62.71 43.68 62.71H30.3C29.07 62.71 28.07 61.71 28.07 60.48V24.78C28.07 23.55 29.07 22.55 30.3 22.55H39.22C40.45 22.55 41.45 23.55 41.45 24.78V56.01C41.45 57.24 42.45 58.24 43.68 58.24C44.91 58.24 45.91 57.24 45.91 56.01V20.32C45.91 19.09 44.91 18.09 43.68 18.09H25.83Z" fill="#F2F2F2"/>
<path d="M68.21 18.09C69.44 18.09 70.44 19.09 70.44 20.32V22.55V62.7V64.93C70.44 66.16 69.44 67.16 68.21 67.16H54.83C53.6 67.16 52.6 68.16 52.6 69.39C52.6 70.62 53.6 71.62 54.83 71.62H68.21C69.44 71.62 70.44 72.62 70.44 73.85C70.44 75.08 69.44 76.08 68.21 76.08H50.36C49.13 76.08 48.13 75.08 48.13 73.85V71.62V67.16V64.93C48.13 63.7 49.13 62.7 50.36 62.7H63.74C64.97 62.7 65.97 61.7 65.97 60.47V24.78C65.97 23.55 64.97 22.55 63.74 22.55H54.82C53.59 22.55 52.59 23.55 52.59 24.78V56.01C52.59 57.24 51.59 58.24 50.36 58.24C49.13 58.24 48.13 57.24 48.13 56.01V22.55V20.32C48.13 19.09 49.13 18.09 50.36 18.09H68.21Z" fill="#F2F2F2"/>
</g>
<defs>
<clipPath id="clip0_2112_16634">
<rect width="95" height="95" fill="white"/>
</clipPath>
</defs>
</svg>
