
<svg width="20" height="20" fill="none" viewBox="0 0 20 20" xmlns="http://www.w3.org/2000/svg"><path d="M10.833 13.75H9.166c-.691 0-1.25.558-1.25 1.25v2.917h4.167V15c0-.692-.558-1.25-1.25-1.25z" stroke="#fff" stroke-width="2" stroke-miterlimit="10" stroke-linejoin="round"/><path d="M8.392 2.35 2.617 6.977c-.65.516-1.067 1.608-.925 2.425L2.8 16.034c.2 1.183 1.333 2.142 2.533 2.142h9.334c1.191 0 2.333-.967 2.533-2.142L18.308 9.4c.134-.817-.283-1.909-.925-2.425l-5.775-4.617c-.891-.717-2.333-.717-3.216-.008z" stroke="#fff" stroke-width="2" stroke-linecap="round" stroke-linejoin="round"/></svg>