
<svg width="20" height="20" fill="none" viewBox="0 0 20 20" xmlns="http://www.w3.org/2000/svg"><path d="M17.083 9.416v-3.55c0-3.358-.783-4.2-3.933-4.2h-6.3c-3.15 0-3.933.842-3.933 4.2v9.383c0 2.217 1.216 2.742 2.691 1.159l.009-.009c.683-.725 1.724-.666 2.316.125l.842 1.125M6.667 5.834h6.666M7.5 9.166h5" stroke="#F1F0E9" stroke-width="1.5" stroke-linecap="round" stroke-linejoin="round"/><path d="m15.176 12.31-2.95 2.95a1.028 1.028 0 0 0-.25.491l-.158 1.125c-.059.409.225.692.633.634l1.125-.159a.991.991 0 0 0 .492-.25l2.95-2.95c.508-.508.75-1.1 0-1.85-.742-.741-1.334-.5-1.842.008z" stroke="#F1F0E9" stroke-width="1.5" stroke-miterlimit="10" stroke-linecap="round" stroke-linejoin="round"/><path d="M14.75 12.734c.25.9.95 1.6 1.85 1.85" stroke="#F1F0E9" stroke-width="1.5" stroke-miterlimit="10" stroke-linecap="round" stroke-linejoin="round"/></svg>