<svg width="109" height="109" viewBox="0 0 109 109" fill="none" xmlns="http://www.w3.org/2000/svg">
<path d="M73.355 9.5H35.645C19.265 9.5 9.5 19.265 9.5 35.645V73.31C9.5 89.735 19.265 99.5 35.645 99.5H73.31C89.69 99.5 99.455 89.735 99.455 73.355V35.645C99.5 19.265 89.735 9.5 73.355 9.5ZM71.375 71.375H37.625C35.78 71.375 34.25 69.845 34.25 68C34.25 66.155 35.78 64.625 37.625 64.625H71.375C73.22 64.625 74.75 66.155 74.75 68C74.75 69.845 73.22 71.375 71.375 71.375ZM71.375 44.375H37.625C35.78 44.375 34.25 42.845 34.25 41C34.25 39.155 35.78 37.625 37.625 37.625H71.375C73.22 37.625 74.75 39.155 74.75 41C74.75 42.845 73.22 44.375 71.375 44.375Z" fill="white"/>
</svg>
