<svg width="108" height="109" viewBox="0 0 108 109" fill="none" xmlns="http://www.w3.org/2000/svg">
<path d="M92.25 46.355H79.245C68.58 46.355 59.895 37.67 59.895 27.005V14C59.895 11.525 57.87 9.5 55.395 9.5H36.315C22.455 9.5 11.25 18.5 11.25 34.565V74.435C11.25 90.5 22.455 99.5 36.315 99.5H71.685C85.545 99.5 96.75 90.5 96.75 74.435V50.855C96.75 48.38 94.725 46.355 92.25 46.355ZM51.885 61.385C51.21 62.06 50.355 62.375 49.5 62.375C48.645 62.375 47.79 62.06 47.115 61.385L43.875 58.145V77C43.875 78.845 42.345 80.375 40.5 80.375C38.655 80.375 37.125 78.845 37.125 77V58.145L33.885 61.385C32.58 62.69 30.42 62.69 29.115 61.385C27.81 60.08 27.81 57.92 29.115 56.615L38.115 47.615C38.43 47.345 38.745 47.12 39.105 46.94C39.195 46.895 39.33 46.85 39.42 46.805C39.69 46.715 39.96 46.67 40.275 46.625C40.41 46.625 40.5 46.625 40.635 46.625C40.995 46.625 41.355 46.715 41.715 46.85C41.76 46.85 41.76 46.85 41.805 46.85C42.165 46.985 42.525 47.255 42.795 47.525C42.84 47.57 42.885 47.57 42.885 47.615L51.885 56.615C53.19 57.92 53.19 60.08 51.885 61.385Z" fill="white"/>
<path d="M78.4351 40.145C82.7101 40.19 88.6501 40.19 93.7351 40.19C96.3001 40.19 97.6501 37.175 95.8501 35.375C89.3701 28.85 77.7601 17.105 71.1001 10.445C69.2551 8.59997 66.0601 9.85997 66.0601 12.425V28.13C66.0601 34.7 71.6401 40.145 78.4351 40.145Z" fill="white"/>
</svg>
