<svg width="24" height="25" viewBox="0 0 24 25" fill="none" xmlns="http://www.w3.org/2000/svg">
<g id="Eye_slash_Icon_UIA">
<path id="Vector" d="M14.5299 9.96992L9.46992 15.0299C8.81992 14.3799 8.41992 13.4899 8.41992 12.4999C8.41992 10.5199 10.0199 8.91992 11.9999 8.91992C12.9899 8.91992 13.8799 9.31992 14.5299 9.96992Z" stroke="#97A7A8" stroke-width="2" stroke-linecap="round" stroke-linejoin="round"/>
<path id="Vector_2" d="M17.8198 6.26998C16.0698 4.94998 14.0698 4.22998 11.9998 4.22998C8.46984 4.22998 5.17984 6.30998 2.88984 9.90998C1.98984 11.32 1.98984 13.69 2.88984 15.1C3.67984 16.34 4.59984 17.41 5.59984 18.27" stroke="#97A7A8" stroke-width="2" stroke-linecap="round" stroke-linejoin="round"/>
<path id="Vector_3" d="M8.41992 20.0302C9.55992 20.5102 10.7699 20.7702 11.9999 20.7702C15.5299 20.7702 18.8199 18.6902 21.1099 15.0902C22.0099 13.6802 22.0099 11.3102 21.1099 9.90018C20.7799 9.38018 20.4199 8.89018 20.0499 8.43018" stroke="#97A7A8" stroke-width="2" stroke-linecap="round" stroke-linejoin="round"/>
<path id="Vector_4" d="M15.5095 13.2002C15.2495 14.6102 14.0995 15.7602 12.6895 16.0202" stroke="#97A7A8" stroke-width="2" stroke-linecap="round" stroke-linejoin="round"/>
<path id="Vector_5" d="M9.47 15.0298L2 22.4998" stroke="#97A7A8" stroke-width="2" stroke-linecap="round" stroke-linejoin="round"/>
<path id="Vector_6" d="M21.9993 2.5L14.5293 9.97" stroke="#97A7A8" stroke-width="2" stroke-linecap="round" stroke-linejoin="round"/>
</g>
</svg>
