<svg width="37" height="36" viewBox="0 0 37 36" fill="none" xmlns="http://www.w3.org/2000/svg">
<path d="M31.955 1.5H27.545C25.64 1.5 24.5 2.64 24.5 4.545V8.955C24.5 10.86 25.64 12 27.545 12H31.955C33.86 12 35 10.86 35 8.955V4.545C35 2.64 33.86 1.5 31.955 1.5ZM32.285 6.465C32.105 6.645 31.865 6.735 31.625 6.735C31.385 6.735 31.145 6.645 30.965 6.465L30.695 6.195V9.555C30.695 10.08 30.275 10.5 29.75 10.5C29.225 10.5 28.805 10.08 28.805 9.555V6.195L28.535 6.465C28.175 6.825 27.575 6.825 27.215 6.465C26.855 6.105 26.855 5.505 27.215 5.145L29.09 3.27C29.165 3.195 29.27 3.135 29.375 3.09C29.405 3.075 29.435 3.075 29.465 3.06C29.54 3.03 29.615 3.015 29.705 3.015C29.735 3.015 29.765 3.015 29.795 3.015C29.9 3.015 29.99 3.03 30.095 3.075C30.11 3.075 30.11 3.075 30.125 3.075C30.23 3.12 30.32 3.18 30.395 3.255C30.41 3.27 30.41 3.27 30.425 3.27L32.3 5.145C32.66 5.505 32.66 6.105 32.285 6.465Z" fill="#225157"/>
<path d="M13.9997 15.5699C15.9713 15.5699 17.5697 13.9716 17.5697 11.9999C17.5697 10.0283 15.9713 8.42993 13.9997 8.42993C12.028 8.42993 10.4297 10.0283 10.4297 11.9999C10.4297 13.9716 12.028 15.5699 13.9997 15.5699Z" fill="#225157"/>
<path d="M31.955 12H31.25V18.915L31.055 18.75C29.885 17.745 27.995 17.745 26.825 18.75L20.585 24.105C19.415 25.11 17.525 25.11 16.355 24.105L15.845 23.685C14.78 22.755 13.085 22.665 11.885 23.475L6.275 27.24C5.945 26.4 5.75 25.425 5.75 24.285V11.715C5.75 7.485 7.985 5.25 12.215 5.25H24.5V4.545C24.5 3.945 24.605 3.435 24.845 3H12.215C6.755 3 3.5 6.255 3.5 11.715V24.285C3.5 25.92 3.785 27.345 4.34 28.545C5.63 31.395 8.39 33 12.215 33H24.785C30.245 33 33.5 29.745 33.5 24.285V11.655C33.065 11.895 32.555 12 31.955 12Z" fill="#225157"/>
</svg>
