<svg width="12" height="13" viewBox="0 0 12 13" fill="none" xmlns="http://www.w3.org/2000/svg">
<path d="M3.74023 9.67523L5.29023 10.8752C5.49023 11.0752 5.94023 11.1752 6.24023 11.1752H8.14023C8.74023 11.1752 9.39023 10.7252 9.54023 10.1252L10.7402 6.47523C10.9902 5.77523 10.5402 5.17523 9.79023 5.17523H7.79023C7.49023 5.17523 7.24023 4.92523 7.29023 4.57523L7.54023 2.97523C7.64023 2.52523 7.34023 2.02523 6.89023 1.87523C6.49023 1.72523 5.99023 1.92523 5.79023 2.22523L3.74023 5.27523" stroke="#225157" stroke-miterlimit="10"/>
<path d="M1.18945 9.6752V4.7752C1.18945 4.0752 1.48945 3.8252 2.18945 3.8252H2.68945C3.38945 3.8252 3.68945 4.0752 3.68945 4.7752V9.6752C3.68945 10.3752 3.38945 10.6252 2.68945 10.6252H2.18945C1.48945 10.6252 1.18945 10.3752 1.18945 9.6752Z" stroke="#225157" stroke-linecap="round" stroke-linejoin="round"/>
</svg>
