<svg width="36" height="46" viewBox="0 0 36 46" fill="none" xmlns="http://www.w3.org/2000/svg"><g fill="#F1F0E9" clip-path="url(#a)"><path d="M1.714.5C.768.5 0 1.276 0 2.23v34.62c0 .953.768 1.73 1.714 1.73h10.28c.946 0 1.714.775 1.714 1.73 0 .954-.768 1.73-1.713 1.73H1.714C.768 42.04 0 42.816 0 43.77s.768 1.73 1.714 1.73H15.43c.945 0 1.713-.776 1.713-1.73v-6.92c0-.955-.768-1.731-1.713-1.731H5.14a1.724 1.724 0 0 1-1.713-1.73V5.69c0-.955.769-1.73 1.714-1.73h6.854c.945 0 1.713.775 1.713 1.73v24.23c0 .954.769 1.73 1.714 1.73s1.713-.776 1.713-1.73V2.23A1.712 1.712 0 0 0 15.43.5H1.714zM34.287.5c.945 0 1.714.776 1.714 1.73v34.611c0 .955-.769 1.73-1.714 1.73H24.006c-.945 0-1.714.776-1.714 1.73 0 .955.769 1.73 1.714 1.73h10.281c.945 0 1.714.777 1.714 1.731 0 .954-.769 1.73-1.714 1.73H20.571a1.723 1.723 0 0 1-1.714-1.73v-6.92c0-.955.769-1.73 1.714-1.73h10.281c.945 0 1.714-.777 1.714-1.731V5.691c0-.955-.769-1.73-1.714-1.73h-6.854c-.945 0-1.713.775-1.713 1.73v24.23c0 .954-.769 1.73-1.714 1.73a1.724 1.724 0 0 1-1.714-1.73V2.23c0-.955.769-1.731 1.714-1.731h13.716z"/></g><defs><clipPath id="a"><path fill="#fff" transform="translate(0 .5)" d="M0 0h36v45H0z"/></clipPath></defs></svg>