<svg width="80" height="98" viewBox="0 0 80 98" fill="none" xmlns="http://www.w3.org/2000/svg">
<g id="Asset 8 1" clip-path="url(#clip0_1221_9264)">
<g id="Layer 1">
<g id="Group">
<path id="Vector" d="M4.2603 0C2.18623 0 0.5 1.68966 0.5 3.76793V79.1603C0.5 81.2386 2.18623 82.9283 4.2603 82.9283H26.8221C28.8962 82.9283 30.5824 84.6179 30.5824 86.6962C30.5824 88.7745 28.8962 90.4641 26.8221 90.4641H4.2603C2.18623 90.4641 0.5 92.1538 0.5 94.2321C0.5 96.3103 2.18623 98 4.2603 98H34.3596C36.4336 98 38.1199 96.3103 38.1199 94.2321V79.1603C38.1199 77.0821 36.4336 75.3924 34.3596 75.3924H11.7809C9.70683 75.3924 8.0206 73.7028 8.0206 71.6245V11.3038C8.0206 9.22552 9.70683 7.53586 11.7809 7.53586H26.8221C28.8962 7.53586 30.5824 9.22552 30.5824 11.3038V64.0717C30.5824 66.15 32.2686 67.8397 34.3427 67.8397C36.4168 67.8397 38.103 66.15 38.103 64.0717V3.76793C38.1199 1.68966 36.4336 0 34.3596 0H4.2603Z" fill="#225157"/>
<path id="Vector_2" d="M75.7394 0C77.8135 0 79.4997 1.68966 79.4997 3.76793V7.53586V75.3755V79.1434C79.4997 81.2217 77.8135 82.9114 75.7394 82.9114H53.1776C51.1036 82.9114 49.4173 84.601 49.4173 86.6793C49.4173 88.7576 51.1036 90.4472 53.1776 90.4472H75.7394C77.8135 90.4472 79.4997 92.1369 79.4997 94.2152C79.4997 96.2934 77.8135 97.9831 75.7394 97.9831H45.6402C43.5661 97.9831 41.8799 96.2934 41.8799 94.2152V90.4472V82.9114V79.1434C41.8799 77.0652 43.5661 75.3755 45.6402 75.3755H68.202C70.276 75.3755 71.9623 73.6859 71.9623 71.6076V11.3038C71.9623 9.22552 70.276 7.53586 68.202 7.53586H53.1608C51.0867 7.53586 49.4005 9.22552 49.4005 11.3038V64.0717C49.4005 66.15 47.7142 67.8397 45.6402 67.8397C43.5661 67.8397 41.8799 66.15 41.8799 64.0717V7.53586V3.76793C41.8799 1.68966 43.5661 0 45.6402 0H75.7394Z" fill="#225157"/>
</g>
</g>
</g>
<defs>
<clipPath id="clip0_1221_9264">
<rect width="79" height="98" fill="white" transform="translate(0.5)"/>
</clipPath>
</defs>
</svg>
