<svg width="24" height="24" viewBox="0 0 24 24" fill="none" xmlns="http://www.w3.org/2000/svg">
<path d="M11 2H9C4 2 2 4 2 9V15C2 20 4 22 9 22H15C20 22 22 20 22 15V13" stroke="#F1F0E9" stroke-width="2" stroke-linecap="round" stroke-linejoin="round"/>
<path d="M16.0399 3.01928L8.15988 10.8993C7.85988 11.1993 7.55988 11.7893 7.49988 12.2193L7.06988 15.2293C6.90988 16.3193 7.67988 17.0793 8.76988 16.9293L11.7799 16.4993C12.1999 16.4393 12.7899 16.1393 13.0999 15.8393L20.9799 7.95928C22.3399 6.59928 22.9799 5.01928 20.9799 3.01928C18.9799 1.01928 17.3999 1.65928 16.0399 3.01928Z" stroke="#F1F0E9" stroke-width="2" stroke-miterlimit="10" stroke-linecap="round" stroke-linejoin="round"/>
<path d="M14.9102 4.15039C15.5802 6.54039 17.4502 8.41039 19.8502 9.09039" stroke="#F1F0E9" stroke-width="2" stroke-miterlimit="10" stroke-linecap="round" stroke-linejoin="round"/>
</svg>
