
<svg width="20" height="20" fill="none" viewBox="0 0 20 20" xmlns="http://www.w3.org/2000/svg"><path d="M9.166 1.666H7.5c-4.167 0-5.833 1.667-5.833 5.833v5c0 4.167 1.666 5.834 5.833 5.834h5c4.166 0 5.833-1.667 5.833-5.834v-1.666" stroke="#F1F0E9" stroke-width="1.7" stroke-linecap="round" stroke-linejoin="round"/><path d="M13.367 2.516 6.8 9.083c-.25.25-.5.742-.55 1.1l-.358 2.508c-.134.909.508 1.542 1.416 1.417l2.509-.358c.35-.05.841-.3 1.1-.55l6.566-6.567c1.134-1.133 1.667-2.45 0-4.117-1.666-1.666-2.983-1.133-4.116 0z" stroke="#F1F0E9" stroke-width="1.7" stroke-miterlimit="10" stroke-linecap="round" stroke-linejoin="round"/><path d="M12.425 3.459a5.954 5.954 0 0 0 4.116 4.117" stroke="#F1F0E9" stroke-width="1.7" stroke-miterlimit="10" stroke-linecap="round" stroke-linejoin="round"/></svg>