
<svg width="20" height="20" fill="none" viewBox="0 0 20 20" xmlns="http://www.w3.org/2000/svg"><path d="M16.083 6.6v4.292c0 2.567-1.466 3.667-3.666 3.667H5.09c-.375 0-.733-.034-1.066-.109a3.243 3.243 0 0 1-.592-.158c-1.25-.467-2.008-1.55-2.008-3.4V6.6c0-2.566 1.466-3.666 3.666-3.666h7.325c1.867 0 3.209.791 3.567 2.6.058.333.1.675.1 1.066z" stroke="#F1F0E9" stroke-width="1.7" stroke-miterlimit="10" stroke-linecap="round" stroke-linejoin="round"/><path d="M18.584 9.1v4.292c0 2.566-1.466 3.666-3.666 3.666H7.593c-.617 0-1.175-.083-1.659-.267-.991-.366-1.666-1.125-1.908-2.341.333.075.692.108 1.067.108h7.325c2.2 0 3.666-1.1 3.666-3.666V6.6c0-.392-.033-.742-.1-1.067 1.584.334 2.6 1.45 2.6 3.567z" stroke="#F1F0E9" stroke-width="1.7" stroke-miterlimit="10" stroke-linecap="round" stroke-linejoin="round"/><path d="M8.748 10.95a2.2 2.2 0 1 0 0-4.4 2.2 2.2 0 0 0 0 4.4zM3.983 6.916v3.667M13.518 6.918v3.667" stroke="#F1F0E9" stroke-width="1.7" stroke-miterlimit="10" stroke-linecap="round" stroke-linejoin="round"/></svg>