<svg width="20" height="24" viewBox="0 0 20 24" fill="none" xmlns="http://www.w3.org/2000/svg">
<path d="M6.78571 1.57812C6.78571 0.980664 6.30804 0.5 5.71429 0.5C5.12054 0.5 4.64286 0.980664 4.64286 1.57812V3.375H2.85714C1.28125 3.375 0 4.66426 0 6.25V6.96875V9.125V20.625C0 22.2107 1.28125 23.5 2.85714 23.5H17.1429C18.7188 23.5 20 22.2107 20 20.625V9.125V6.96875V6.25C20 4.66426 18.7188 3.375 17.1429 3.375H15.3571V1.57812C15.3571 0.980664 14.8795 0.5 14.2857 0.5C13.692 0.5 13.2143 0.980664 13.2143 1.57812V3.375H6.78571V1.57812ZM2.14286 9.125H17.8571V20.625C17.8571 21.0203 17.5357 21.3438 17.1429 21.3438H2.85714C2.46429 21.3438 2.14286 21.0203 2.14286 20.625V9.125Z" fill="white"/>
</svg>
