<svg width="108" height="109" viewBox="0 0 108 109" fill="none" xmlns="http://www.w3.org/2000/svg">
<path d="M86.2648 30.3801C84.3298 20.6151 77.0848 16.3401 67.0048 16.3401H27.4948C15.6148 16.3401 7.69482 22.2801 7.69482 36.1401V59.3151C7.69482 69.3051 11.7898 75.1551 18.5398 77.6751C19.5298 78.0351 20.6098 78.3501 21.7348 78.5301C23.5348 78.9351 25.4698 79.1151 27.4948 79.1151H67.0498C78.9298 79.1151 86.8498 73.1751 86.8498 59.3151V36.1401C86.8498 34.0251 86.6698 32.1351 86.2648 30.3801ZM24.8848 54.5001C24.8848 56.3451 23.3548 57.8751 21.5098 57.8751C19.6648 57.8751 18.1348 56.3451 18.1348 54.5001V41.0001C18.1348 39.1551 19.6648 37.6251 21.5098 37.6251C23.3548 37.6251 24.8848 39.1551 24.8848 41.0001V54.5001ZM47.2498 59.6301C40.6798 59.6301 35.3698 54.3201 35.3698 47.7501C35.3698 41.1801 40.6798 35.8701 47.2498 35.8701C53.8198 35.8701 59.1298 41.1801 59.1298 47.7501C59.1298 54.3201 53.8198 59.6301 47.2498 59.6301ZM76.3198 54.5001C76.3198 56.3451 74.7898 57.8751 72.9448 57.8751C71.0998 57.8751 69.5698 56.3451 69.5698 54.5001V41.0001C69.5698 39.1551 71.0998 37.6251 72.9448 37.6251C74.7898 37.6251 76.3198 39.1551 76.3198 41.0001V54.5001Z" fill="white"/>
<path d="M100.35 49.64V72.815C100.35 86.675 92.4299 92.66 80.5049 92.66H40.9949C37.6199 92.66 34.6049 92.165 31.9949 91.175C29.8799 90.41 28.0349 89.285 26.5499 87.845C25.7399 87.08 26.3699 85.865 27.4949 85.865H67.0049C83.6549 85.865 93.5549 75.965 93.5549 59.36V36.14C93.5549 35.06 94.7699 34.385 95.5349 35.195C98.5949 38.435 100.35 43.16 100.35 49.64Z" fill="white"/>
</svg>
