<svg width="21" height="20" viewBox="0 0 21 20" fill="none" xmlns="http://www.w3.org/2000/svg">
<path d="M19.1136 15.4643C19.1136 15.7758 19.0444 16.096 18.8973 16.4075C18.7502 16.719 18.5598 17.0132 18.3088 17.2901C17.8848 17.7574 17.4176 18.0949 16.8897 18.3112C16.3705 18.5276 15.808 18.64 15.2023 18.64C14.3197 18.64 13.3765 18.4324 12.3814 18.0084C11.3862 17.5843 10.3911 17.0132 9.40462 16.295C8.4095 15.5681 7.46629 14.7634 6.56635 13.8721C5.67506 12.9722 4.87031 12.0289 4.15209 11.0425C3.44252 10.056 2.8714 9.06953 2.45604 8.09171C2.04069 7.10523 1.83301 6.16202 1.83301 5.26208C1.83301 4.67366 1.93685 4.1112 2.14453 3.592C2.3522 3.06415 2.68103 2.57957 3.13965 2.1469C3.69346 1.60175 4.29919 1.3335 4.93953 1.3335C5.18183 1.3335 5.42412 1.38542 5.64045 1.48926C5.86543 1.59309 6.06446 1.74885 6.22022 1.97384L8.22778 4.80346C8.38354 5.01979 8.49603 5.21882 8.57391 5.40919C8.65179 5.59091 8.69506 5.77263 8.69506 5.93704C8.69506 6.14472 8.63448 6.3524 8.51334 6.55142C8.40084 6.75045 8.23643 6.95813 8.02875 7.1658L7.3711 7.84941C7.27592 7.9446 7.23265 8.05709 7.23265 8.19554C7.23265 8.26477 7.24131 8.32534 7.25861 8.39457C7.28457 8.4638 7.31053 8.51572 7.32784 8.56764C7.4836 8.85319 7.75185 9.22528 8.13259 9.67525C8.52199 10.1252 8.93735 10.5838 9.38732 11.0425C9.85459 11.5011 10.3046 11.9251 10.7632 12.3145C11.2132 12.6952 11.5852 12.9548 11.8795 13.1106C11.9227 13.1279 11.9746 13.1539 12.0352 13.1798C12.1044 13.2058 12.1737 13.2144 12.2516 13.2144C12.3987 13.2144 12.5112 13.1625 12.6063 13.0673L13.264 12.4183C13.4803 12.202 13.688 12.0376 13.887 11.9338C14.086 11.8126 14.2851 11.752 14.5014 11.752C14.6658 11.752 14.8389 11.7867 15.0293 11.8645C15.2196 11.9424 15.4187 12.0549 15.635 12.202L18.4992 14.2355C18.7242 14.3913 18.88 14.573 18.9751 14.7893C19.0617 15.0057 19.1136 15.222 19.1136 15.4643Z" stroke="white" stroke-width="2" stroke-miterlimit="10"/>
<path d="M16.1117 7.39071C16.1117 6.87151 15.705 6.07541 15.0992 5.42641C14.5454 4.82934 13.8099 4.36206 13.083 4.36206" stroke="white" stroke-width="2" stroke-linecap="round" stroke-linejoin="round"/>
<path d="M19.1403 7.39079C19.1403 4.04197 16.4318 1.3335 13.083 1.3335" stroke="white" stroke-width="2" stroke-linecap="round" stroke-linejoin="round"/>
</svg>
