<svg width="20" height="20" fill="none" viewBox="0 0 20 20" xmlns="http://www.w3.org/2000/svg">
    <path
        d="M2.5 18.334h15M4.667 6.982H3.333a.836.836 0 0 0-.833.834v7.183c0 .458.375.833.833.833h1.334A.836.836 0 0 0 5.5 15V7.816a.836.836 0 0 0-.833-.834zM10.667 4.324H9.333a.836.836 0 0 0-.833.834v9.841c0 .458.375.833.833.833h1.334A.836.836 0 0 0 11.5 15V5.158a.836.836 0 0 0-.833-.834zM16.667 1.666h-1.334a.836.836 0 0 0-.833.833V15c0 .459.375.834.833.834h1.334a.836.836 0 0 0 .833-.834V2.5a.836.836 0 0 0-.833-.833z"
        stroke="#fff" stroke-width="1.5" stroke-linecap="round" stroke-linejoin="round" />
</svg>