<svg width="36" height="36" viewBox="0 0 36 36" fill="none" xmlns="http://www.w3.org/2000/svg">
<path d="M31.455 1.5H27.045C25.14 1.5 24 2.64 24 4.545V8.955C24 10.86 25.14 12 27.045 12H31.455C33.36 12 34.5 10.86 34.5 8.955V4.545C34.5 2.64 33.36 1.5 31.455 1.5ZM31.785 6.465C31.605 6.645 31.365 6.735 31.125 6.735C30.885 6.735 30.645 6.645 30.465 6.465L30.195 6.195V9.555C30.195 10.08 29.775 10.5 29.25 10.5C28.725 10.5 28.305 10.08 28.305 9.555V6.195L28.035 6.465C27.675 6.825 27.075 6.825 26.715 6.465C26.355 6.105 26.355 5.505 26.715 5.145L28.59 3.27C28.665 3.195 28.77 3.135 28.875 3.09C28.905 3.075 28.935 3.075 28.965 3.06C29.04 3.03 29.115 3.015 29.205 3.015C29.235 3.015 29.265 3.015 29.295 3.015C29.4 3.015 29.49 3.03 29.595 3.075C29.61 3.075 29.61 3.075 29.625 3.075C29.73 3.12 29.82 3.18 29.895 3.255C29.91 3.27 29.91 3.27 29.925 3.27L31.8 5.145C32.16 5.505 32.16 6.105 31.785 6.465Z" fill="white"/>
<path d="M13.4997 15.5699C15.4713 15.5699 17.0697 13.9716 17.0697 11.9999C17.0697 10.0283 15.4713 8.42993 13.4997 8.42993C11.528 8.42993 9.92969 10.0283 9.92969 11.9999C9.92969 13.9716 11.528 15.5699 13.4997 15.5699Z" fill="white"/>
<path d="M31.455 12H30.75V18.915L30.555 18.75C29.385 17.745 27.495 17.745 26.325 18.75L20.085 24.105C18.915 25.11 17.025 25.11 15.855 24.105L15.345 23.685C14.28 22.755 12.585 22.665 11.385 23.475L5.775 27.24C5.445 26.4 5.25 25.425 5.25 24.285V11.715C5.25 7.485 7.485 5.25 11.715 5.25H24V4.545C24 3.945 24.105 3.435 24.345 3H11.715C6.255 3 3 6.255 3 11.715V24.285C3 25.92 3.285 27.345 3.84 28.545C5.13 31.395 7.89 33 11.715 33H24.285C29.745 33 33 29.745 33 24.285V11.655C32.565 11.895 32.055 12 31.455 12Z" fill="white"/>
</svg>
