<svg width="108" height="109" viewBox="0 0 108 109" fill="none" xmlns="http://www.w3.org/2000/svg">
<path d="M54 9.5C42.21 9.5 32.625 19.085 32.625 30.875C32.625 42.44 41.67 51.8 53.46 52.205C53.82 52.16 54.18 52.16 54.45 52.205C54.54 52.205 54.585 52.205 54.675 52.205C54.72 52.205 54.72 52.205 54.765 52.205C66.285 51.8 75.33 42.44 75.375 30.875C75.375 19.085 65.79 9.5 54 9.5Z" fill="white"/>
<path d="M76.8598 64.175C64.3048 55.805 43.8298 55.805 31.1848 64.175C25.4698 68 22.3198 73.175 22.3198 78.71C22.3198 84.245 25.4698 89.375 31.1398 93.155C37.4398 97.385 45.7198 99.5 53.9998 99.5C62.2798 99.5 70.5598 97.385 76.8598 93.155C82.5298 89.33 85.6798 84.2 85.6798 78.62C85.6348 73.085 82.5298 67.955 76.8598 64.175Z" fill="white"/>
</svg>
